GRF
version=1
nRows=12
nColumns=19
inDegrees=no
endheader
time	1_ground_force_vx	1_ground_force_vy	1_ground_force_vz	1_ground_force_px	1_ground_force_py	1_ground_force_pz	1_ground_torque_x	1_ground_torque_y	1_ground_torque_z	2_ground_force_vx	2_ground_force_vy	2_ground_force_vz	2_ground_force_px	2_ground_force_py	2_ground_force_pz	2_ground_torque_x	2_ground_torque_y	2_ground_torque_z
      3.00000000	      0.04725910	      0.52207566	      0.26619758	      0.65639709	      0.00000000	     -0.31126511	     -0.00000000	      0.03210781	     -0.00000000	      0.00000000	      0.00000000	      0.00000000	      0.00000000	      0.00000000	      0.00000000	      0.00000000	      0.00000000	      0.00000000
      3.00100000	     -0.26461595	     -0.11976060	      0.07994326	      0.13879590	      0.00000000	      0.00363443	      0.00000000	      0.07965297	      0.00000000	      0.00000000	      0.00000000	      0.00000000	      0.00000000	      0.00000000	      0.00000000	      0.00000000	      0.00000000	      0.00000000
      3.00200000	      0.05115530	      0.15659973	      0.11662780	      0.01692921	      0.00000000	      0.36492536	      0.00000000	      0.01460190	      0.00000000	      0.00000000	      0.00000000	      0.00000000	      0.00000000	      0.00000000	      0.00000000	      0.00000000	      0.00000000	      0.00000000
      3.00300000	      0.48910038	      0.89436522	     -0.00156479	      0.11562054	      0.00000000	      0.41132343	      0.00000000	     -0.05245094	      0.00000000	      0.00000000	      0.00000000	      0.00000000	      0.00000000	      0.00000000	      0.00000000	      0.00000000	      0.00000000	      0.00000000
      3.00400000	      0.64232403	      0.99359575	     -0.39883642	      0.72511178	      0.00000000	     -0.45606824	      0.00000000	      1.36559611	      0.00000000	      0.00000000	      0.00000000	      0.00000000	      0.00000000	      0.00000000	      0.00000000	      0.00000000	      0.00000000	      0.00000000
      3.00500000	      0.79312430	      0.68755007	     -0.48201729	      4.05650415	      0.00000000	     -5.32148705	     -0.00000000	      9.56263014	      0.00000000	      0.00000000	      0.00000000	      0.00000000	      0.00000000	      0.00000000	      0.00000000	      0.00000000	      0.00000000	      0.00000000
      3.00600000	      1.04954108	      0.52443314	     -0.14280833	      7.24384004	      0.00000000	    -10.14589890	     -0.00000000	     17.75195573	      0.00000000	      0.00000000	      0.00000000	      0.00000000	      0.00000000	      0.00000000	      0.00000000	      0.00000000	      0.00000000	      0.00000000
      3.00700000	      0.85102598	      0.36603275	      0.10205462	      3.93861271	      0.00000000	     -5.29031839	     -0.00000000	      9.52593507	      0.00000000	      0.00000000	      0.00000000	      0.00000000	      0.00000000	      0.00000000	      0.00000000	      0.00000000	      0.00000000	      0.00000000
      3.00800000	      0.43455107	     -0.10843599	     -0.04216421	      0.73813603	      0.00000000	     -0.51457599	     -0.00000000	      1.37390749	      0.00000000	      0.00000000	      0.00000000	      0.00000000	      0.00000000	      0.00000000	      0.00000000	      0.00000000	      0.00000000	      0.00000000
      3.00900000	      0.42340527	     -0.03673343	     -0.29043261	      0.14794297	      0.00000000	      0.22140675	     -0.00000000	      0.09406458	      0.00000000	      0.00000000	      0.00000000	      0.00000000	      0.00000000	      0.00000000	      0.00000000	      0.00000000	      0.00000000	      0.00000000
      3.01000000	      0.76805290	      0.72214138	     -0.28909573	      0.09515135	      0.00000000	      0.18193401	     -0.00000000	      0.10644584	      0.00000000	      0.00000000	      0.00000000	      0.00000000	      0.00000000	      0.00000000	      0.00000000	      0.00000000	      0.00000000	      0.00000000
      3.01100000	      0.89741558	      1.04509479	     -0.51122872	      0.12529794	      0.00000000	      0.16066265	     -0.00000000	      0.06665125	      0.00000000	      0.00000000	      0.00000000	      0.00000000	      0.00000000	      0.00000000	      0.00000000	      0.00000000	      0.00000000	      0.00000000
